<svg width="29" height="20" viewBox="0 0 29 20" fill="none" xmlns="http://www.w3.org/2000/svg">
<path d="M28.0941 3.11944C27.9309 2.51651 27.6127 1.96683 27.171 1.52514C26.7293 1.08346 26.1797 0.765179 25.5767 0.602C23.3694 0 14.4856 0 14.4856 0C14.4856 0 5.60141 0.0182222 3.39408 0.620222C2.79113 0.783411 2.24146 1.10171 1.79979 1.54341C1.35812 1.98512 1.03988 2.53482 0.876742 3.13778C0.209076 7.05978 -0.0499244 13.036 0.895076 16.8011C1.05823 17.4041 1.37648 17.9537 1.81815 18.3954C2.25981 18.8371 2.80948 19.1554 3.41241 19.3186C5.61974 19.9206 14.5037 19.9206 14.5037 19.9206C14.5037 19.9206 23.3876 19.9206 25.5949 19.3186C26.1978 19.1554 26.7475 18.8371 27.1892 18.3954C27.6309 17.9538 27.9491 17.4041 28.1123 16.8011C28.8165 12.8736 29.0335 6.901 28.0941 3.11944Z" fill="#FF0000"/>
<path d="M11.6577 14.2289L19.0275 9.96023L11.6577 5.69156V14.2289Z" fill="white"/>
</svg>
