<svg width="18" height="20" viewBox="0 0 18 20" fill="none" xmlns="http://www.w3.org/2000/svg">
<path d="M13.2565 7.20145C14.5446 8.1218 16.1227 8.66332 17.827 8.66332V5.38538C17.5045 5.38551 17.1827 5.35186 16.8672 5.28497V7.86518C15.163 7.86518 13.5851 7.32373 12.2967 6.40345V13.0928C12.2967 16.4392 9.58248 19.1518 6.23462 19.1518C4.98545 19.1518 3.82435 18.7744 2.85986 18.127C3.96069 19.252 5.49586 19.9499 7.19421 19.9499C10.5423 19.9499 13.2566 17.2373 13.2566 13.8908V7.20145H13.2565ZM14.4406 3.89442C13.7823 3.17559 13.35 2.24662 13.2565 1.21959V0.798004H12.3469C12.5759 2.10331 13.3569 3.21849 14.4406 3.89442ZM4.97738 15.5591C4.60954 15.0772 4.41072 14.4875 4.41166 13.8812C4.41166 12.3507 5.6531 11.1097 7.18476 11.1097C7.47015 11.1096 7.75387 11.1534 8.02593 11.2396V7.88835C7.708 7.84483 7.38717 7.82628 7.06648 7.83311V10.4415C6.79429 10.3553 6.51043 10.3115 6.2249 10.3117C4.69331 10.3117 3.45193 11.5526 3.45193 13.0832C3.45193 14.1656 4.07241 15.1026 4.97738 15.5591Z" fill="#FF004F"/>
<path d="M12.2969 6.40338C13.5854 7.32366 15.1631 7.86511 16.8674 7.86511V5.2849C15.916 5.08235 15.0739 4.58552 14.4407 3.89442C13.3569 3.21842 12.576 2.10325 12.3471 0.798004H9.95791V13.8906C9.95246 15.417 8.71315 16.6528 7.18481 16.6528C6.28426 16.6528 5.48412 16.2238 4.97743 15.559C4.0726 15.1026 3.45205 14.1655 3.45205 13.0833C3.45205 11.5528 4.69343 10.3118 6.22501 10.3118C6.51846 10.3118 6.80129 10.3575 7.0666 10.4416V7.83318C3.7775 7.90111 1.13232 10.5872 1.13232 13.8907C1.13232 15.5398 1.79101 17.0348 2.86012 18.1271C3.8246 18.7743 4.98563 19.1519 6.23488 19.1519C9.58281 19.1519 12.2969 16.4392 12.2969 13.0928L12.2969 6.40338Z" fill="black"/>
<path d="M16.8672 5.28483V4.58731C16.0093 4.58855 15.1684 4.34844 14.4406 3.89441C15.0848 4.59939 15.9332 5.08554 16.8672 5.28497M12.3468 0.797931C12.325 0.673212 12.3083 0.547661 12.2966 0.421586V0H8.99774V13.0928C8.9925 14.619 7.75319 15.8548 6.22478 15.8548C5.79148 15.8555 5.36411 15.7542 4.97719 15.5592C5.48388 16.2238 6.28402 16.6528 7.18457 16.6528C8.71285 16.6528 9.95229 15.417 9.95767 13.8907V0.798L12.3468 0.797931ZM7.06657 7.8331V7.09041C6.7909 7.05278 6.513 7.03393 6.23478 7.034C2.8865 7.034 0.172363 9.74669 0.172363 13.0928C0.172363 15.1906 1.23905 17.0394 2.86002 18.127C1.79092 17.0347 1.13223 15.5397 1.13223 13.8906C1.13223 10.5872 3.77733 7.90103 7.06657 7.8331Z" fill="#00F2EA"/>
</svg>
